<svg xmlns="http://www.w3.org/2000/svg" viewBox="0 0 100 100">
  <defs>
    <linearGradient id="grad" x1="0%" y1="0%" x2="100%" y2="100%">
      <stop offset="0%" style="stop-color:#4F8DFD;stop-opacity:1" />
      <stop offset="100%" style="stop-color:#a78bfa;stop-opacity:1" />
    </linearGradient>
  </defs>
  <circle cx="50" cy="50" r="45" fill="url(#grad)"/>
  <path fill="white" d="M50 25c-8.3 0-15 6.7-15 15v5h-2.5c-2.8 0-5 2.2-5 5v22.5c0 2.8 2.2 5 5 5h35c2.8 0 5-2.2 5-5V50c0-2.8-2.2-5-5-5H65v-5c0-8.3-6.7-15-15-15zm0 7.5c4.1 0 7.5 3.4 7.5 7.5v5h-15v-5c0-4.1 3.4-7.5 7.5-7.5zm0 25c2.8 0 5 2.2 5 5s-2.2 5-5 5-5-2.2-5-5 2.2-5 5-5z"/>
</svg>
